<svg xmlns="http://www.w3.org/2000/svg" xmlns:xlink="http://www.w3.org/1999/xlink" width="500" zoomAndPan="magnify" viewBox="0 0 375 374.999991" height="500" preserveAspectRatio="xMidYMid meet" version="1.0"><defs><clipPath id="87b7e10eac"><path d="M 0 0 L 295 0 L 295 266 L 0 266 Z M 0 0 " clip-rule="nonzero"/></clipPath><clipPath id="ca7dbb271f"><path d="M 298.414062 259.410156 L -215.210938 270.878906 L -223.113281 -83.035156 L 290.507812 -94.503906 Z M 298.414062 259.410156 " clip-rule="nonzero"/></clipPath><clipPath id="154aeacd98"><path d="M 298.40625 259.410156 L -216.910156 270.914062 L -224.847656 -84.503906 L 290.46875 -96.007812 Z M 298.40625 259.410156 " clip-rule="nonzero"/></clipPath><clipPath id="ddd29caade"><path d="M 41.601562 265.144531 C 183.429688 261.976562 296.636719 180.183594 294.457031 82.453125 C 292.273438 -15.277344 175.527344 -91.9375 33.699219 -88.769531 C -108.132812 -85.601562 -221.335938 -3.808594 -219.15625 93.921875 C -216.972656 191.652344 -100.226562 268.308594 41.601562 265.144531 " clip-rule="nonzero"/></clipPath><clipPath id="b0a333a3ee"><path d="M 0 0 L 259.035156 0 L 259.035156 240.921875 L 0 240.921875 Z M 0 0 " clip-rule="nonzero"/></clipPath><clipPath id="016ac52abf"><path d="M 54.777344 -89.160156 C -58.035156 -89.160156 -149.484375 -15.269531 -149.484375 75.878906 C -149.484375 167.027344 -58.035156 240.921875 54.777344 240.921875 C 167.585938 240.921875 259.035156 167.027344 259.035156 75.878906 C 259.035156 -15.269531 167.585938 -89.160156 54.777344 -89.160156 " clip-rule="nonzero"/></clipPath><linearGradient x1="231.871838" gradientTransform="matrix(0.644689, 0, 0, 0.644689, -149.485206, -89.160798)" y1="0" x2="633.671895" gradientUnits="userSpaceOnUse" y2="0" id="5f96da58f0"><stop stop-opacity="1" stop-color="rgb(97.401428%, 96.852112%, 96.852112%)" offset="0"/><stop stop-opacity="1" stop-color="rgb(97.259521%, 96.681213%, 96.681213%)" offset="0.0625"/><stop stop-opacity="1" stop-color="rgb(96.97876%, 96.340942%, 96.340942%)" offset="0.125"/><stop stop-opacity="1" stop-color="rgb(96.697998%, 95.999146%, 95.999146%)" offset="0.1875"/><stop stop-opacity="1" stop-color="rgb(96.41571%, 95.658875%, 95.658875%)" offset="0.25"/><stop stop-opacity="1" stop-color="rgb(96.134949%, 95.318604%, 95.318604%)" offset="0.3125"/><stop stop-opacity="1" stop-color="rgb(95.852661%, 94.976807%, 94.976807%)" offset="0.375"/><stop stop-opacity="1" stop-color="rgb(95.571899%, 94.636536%, 94.636536%)" offset="0.4375"/><stop stop-opacity="1" stop-color="rgb(95.291138%, 94.296265%, 94.296265%)" offset="0.5"/><stop stop-opacity="1" stop-color="rgb(95.00885%, 93.954468%, 93.954468%)" offset="0.5625"/><stop stop-opacity="1" stop-color="rgb(94.728088%, 93.614197%, 93.614197%)" offset="0.625"/><stop stop-opacity="1" stop-color="rgb(94.445801%, 93.273926%, 93.273926%)" offset="0.6875"/><stop stop-opacity="1" stop-color="rgb(94.165039%, 92.932129%, 92.932129%)" offset="0.75"/><stop stop-opacity="1" stop-color="rgb(93.884277%, 92.591858%, 92.591858%)" offset="0.8125"/><stop stop-opacity="1" stop-color="rgb(93.60199%, 92.250061%, 92.250061%)" offset="0.875"/><stop stop-opacity="1" stop-color="rgb(93.321228%, 91.90979%, 91.90979%)" offset="0.9375"/><stop stop-opacity="1" stop-color="rgb(93.03894%, 91.569519%, 91.569519%)" offset="1"/></linearGradient></defs><g clip-path="url(#87b7e10eac)"><g clip-path="url(#ca7dbb271f)"><g clip-path="url(#154aeacd98)"><g clip-path="url(#ddd29caade)"><path stroke-linecap="butt" transform="matrix(-0.749386, 0.0167341, -0.0167271, -0.749069, 298.406587, 259.408723)" fill="none" stroke-linejoin="miter" d="M 342.687422 -0.00164804 C 153.428212 -0.000471021 0.00097985 105.764788 -0.00259228 236.233919 C -0.000954401 366.703167 153.427254 472.471289 342.686464 472.470112 C 531.950884 472.469051 685.372906 366.703676 685.376478 236.234545 C 685.37484 105.765296 531.946515 0.00238714 342.687422 -0.00164804 " stroke="#ede9e9" stroke-width="8" stroke-opacity="1" stroke-miterlimit="4"/></g></g></g></g><g clip-path="url(#b0a333a3ee)"><g clip-path="url(#016ac52abf)"><path fill="url(#5f96da58f0)" d="M 0 0 L 0 240.921875 L 259.035156 240.921875 L 259.035156 0 Z M 0 0 " fill-rule="nonzero"/></g></g></svg>